<?xml version="1.0" standalone="no"?>
<!DOCTYPE svg PUBLIC "-//W3C//DTD SVG 20010904//EN"
 "http://www.w3.org/TR/2001/REC-SVG-20010904/DTD/svg10.dtd">
<svg version="1.0" xmlns="http://www.w3.org/2000/svg"
 width="512.000000pt" height="512.000000pt" viewBox="0 0 512.000000 512.000000"
 preserveAspectRatio="xMidYMid meet">

<g transform="translate(0.000000,512.000000) scale(0.100000,-0.100000)"
fill="#48d1cc" stroke="none">
<path d="M4929 5056 c-66 -18 -127 -57 -191 -123 -31 -32 -538 -641 -1128
-1353 -590 -712 -1085 -1308 -1100 -1323 l-27 -29 -356 415 c-223 261 -373
427 -403 448 -168 115 -390 101 -542 -36 -32 -29 -62 -71 -88 -121 -39 -77
-39 -78 -39 -193 0 -180 -22 -148 587 -858 286 -335 541 -630 567 -656 28 -29
76 -63 121 -85 72 -36 77 -37 190 -37 109 0 118 2 180 32 38 19 86 54 117 85
35 36 391 581 1131 1733 594 924 1094 1708 1111 1742 113 225 47 406 -130 359z"/>
</g>
</svg>
