<?xml version="1.0" standalone="no"?>
<!DOCTYPE svg PUBLIC "-//W3C//DTD SVG 20010904//EN"
 "http://www.w3.org/TR/2001/REC-SVG-20010904/DTD/svg10.dtd">
<svg version="1.0" xmlns="http://www.w3.org/2000/svg"
 width="512.000000pt" height="512.000000pt" viewBox="0 0 512.000000 512.000000"
 preserveAspectRatio="xMidYMid meet">

<g transform="translate(0.000000,512.000000) scale(0.100000,-0.100000)"
fill="#fff" stroke="none">
<path d="M1455 4410 c-126 -20 -336 -95 -380 -136 -31 -28 -33 -72 -5 -102 29
-30 61 -28 156 13 138 59 223 78 364 79 105 1 137 -3 200 -22 121 -38 174 -75
333 -231 208 -204 280 -318 327 -514 19 -77 20 -119 20 -675 0 -649 2 -623
-59 -675 -65 -54 -141 -58 -214 -11 -72 47 -77 70 -77 388 l0 280 75 77 c44
45 75 85 75 97 0 24 -38 70 -60 73 -8 1 -24 1 -35 0 -12 -1 -267 -248 -645
-625 -344 -343 -635 -629 -647 -635 -32 -16 -91 -13 -124 6 -16 10 -39 37 -50
61 -42 86 -54 70 407 532 367 369 414 419 414 447 0 44 -29 76 -69 76 -29 0
-80 -47 -534 -501 -276 -275 -515 -506 -530 -511 -66 -25 -145 2 -174 59 -16
31 -17 94 -2 123 6 12 225 237 487 499 425 426 475 480 475 508 0 41 -32 73
-73 73 -28 0 -72 -40 -393 -360 -199 -199 -372 -366 -384 -372 -102 -52 -233
72 -182 172 6 12 189 200 405 418 328 329 394 400 394 423 0 39 -15 61 -49 75
-24 10 -34 10 -57 -3 -16 -8 -130 -117 -254 -241 -124 -124 -237 -233 -252
-241 -75 -39 -182 15 -189 96 -7 79 -19 64 401 485 360 361 400 404 400 433 0
42 -30 72 -73 72 -29 0 -69 -37 -438 -407 -457 -458 -445 -442 -437 -575 2
-42 11 -89 22 -109 22 -47 80 -106 130 -131 l38 -19 -75 -77 c-101 -104 -117
-139 -117 -247 0 -65 5 -95 20 -124 30 -60 69 -100 122 -127 l50 -25 -45 -48
c-63 -67 -79 -104 -85 -189 -6 -89 14 -147 72 -210 56 -61 106 -84 192 -90 61
-4 80 -1 125 20 30 14 65 34 78 45 l24 20 26 -51 c32 -60 104 -119 168 -136
55 -16 158 -8 203 15 19 9 256 238 527 508 l492 491 3 -230 c3 -227 3 -229 31
-286 33 -68 90 -121 166 -156 112 -52 263 -28 348 57 l31 32 34 -32 c126 -119
341 -110 459 18 78 85 84 107 87 367 l3 229 313 -311 c171 -172 319 -312 328
-312 59 0 99 60 73 108 -22 44 -898 912 -920 913 -11 1 -27 1 -35 0 -22 -3
-60 -49 -60 -73 0 -12 31 -52 75 -97 l75 -77 0 -280 c0 -318 -5 -341 -77 -388
-73 -47 -149 -43 -214 11 -61 52 -59 27 -59 672 0 643 1 657 59 806 47 122
124 225 288 386 159 156 212 193 333 231 64 19 95 23 205 22 110 -1 144 -5
220 -28 123 -37 258 -104 352 -175 43 -33 255 -237 471 -453 413 -415 399
-397 392 -478 -6 -81 -113 -135 -188 -96 -15 8 -128 117 -252 241 -124 124
-238 233 -254 241 -51 28 -106 -10 -106 -72 0 -23 66 -94 394 -423 216 -218
399 -406 405 -418 51 -100 -80 -224 -182 -172 -12 6 -185 173 -384 372 -321
320 -365 360 -393 360 -41 0 -73 -32 -73 -73 0 -28 50 -82 475 -508 262 -262
481 -487 487 -499 6 -12 11 -38 11 -58 0 -98 -93 -160 -187 -124 -15 5 -254
236 -530 511 -454 454 -505 501 -534 501 -40 0 -69 -32 -69 -76 0 -28 47 -78
414 -447 461 -462 449 -446 407 -532 -24 -51 -65 -78 -116 -78 -51 0 -68 11
-166 106 -96 93 -122 102 -164 59 -46 -45 -36 -70 73 -177 124 -122 143 -133
252 -133 71 0 93 4 134 25 54 28 110 87 127 135 l12 32 48 -33 c68 -45 111
-57 188 -52 80 6 133 31 187 90 58 63 78 121 72 210 -6 84 -22 122 -84 188
l-45 48 55 31 c124 69 176 212 126 345 -17 45 -41 79 -102 142 l-80 83 39 20
c80 43 126 101 148 190 18 70 11 131 -24 199 -11 20 -210 226 -443 458 -441
439 -491 482 -651 558 -174 83 -351 122 -517 112 -251 -14 -408 -99 -649 -353
-114 -120 -179 -207 -227 -305 -15 -32 -31 -58 -34 -58 -3 0 -22 34 -43 74
-47 91 -109 175 -213 285 -243 259 -408 347 -664 356 -63 2 -142 0 -175 -5z"/>
<path d="M1681 1724 c-12 -15 -21 -34 -21 -44 0 -25 48 -84 118 -145 369 -321
884 -395 1320 -188 159 75 381 252 398 317 10 41 -22 80 -69 84 -34 3 -44 -3
-114 -70 -139 -132 -289 -217 -471 -265 -84 -23 -118 -26 -257 -27 -137 -1
-173 3 -249 23 -192 50 -346 134 -482 263 -71 66 -88 78 -118 78 -25 0 -40 -7
-55 -26z"/>
<path d="M1425 1225 c-56 -55 -18 -107 174 -236 192 -130 407 -220 641 -271
92 -20 133 -22 340 -22 207 0 248 2 340 22 286 62 537 180 758 354 66 53 82
74 82 108 0 28 -43 70 -73 70 -13 0 -63 -30 -119 -73 -190 -143 -376 -235
-581 -287 -155 -39 -245 -50 -412 -50 -331 0 -635 95 -905 282 -47 33 -104 75
-128 94 -51 40 -84 43 -117 9z"/>
</g>
</svg>
