<svg aria-hidden="true" style="position: absolute; width: 0; height: 0; overflow: hidden;" version="1.1" xmlns="http://www.w3.org/2000/svg" xmlns:xlink="http://www.w3.org/1999/xlink">
<defs>
<symbol id="check" viewBox="0 0 32 32">
<path fill="#48d1cc" style="fill: var(--color1, #48d1cc)" d="M30.806 0.4c-0.413 0.113-0.794 0.356-1.194 0.769-0.194 0.2-3.363 4.006-7.050 8.456s-6.781 8.175-6.875 8.269l-0.169 0.181-2.225-2.594c-1.394-1.631-2.331-2.669-2.519-2.8-1.050-0.719-2.438-0.631-3.388 0.225-0.2 0.181-0.388 0.444-0.55 0.756-0.244 0.481-0.244 0.488-0.244 1.206 0 1.125-0.138 0.925 3.669 5.363 1.787 2.094 3.381 3.938 3.544 4.1 0.175 0.181 0.475 0.394 0.756 0.531 0.45 0.225 0.481 0.231 1.188 0.231 0.681 0 0.737-0.012 1.125-0.2 0.238-0.119 0.538-0.337 0.731-0.531 0.219-0.225 2.444-3.631 7.069-10.831 3.712-5.775 6.837-10.675 6.944-10.887 0.706-1.406 0.294-2.538-0.813-2.244z"></path>
</symbol>
<symbol id="massage" viewBox="0 0 32 32">
<path fill="#fff" style="fill: var(--color2, #fff)" d="M9.094 4.438c-0.787 0.125-2.1 0.594-2.375 0.85-0.194 0.175-0.206 0.45-0.031 0.638 0.181 0.188 0.381 0.175 0.975-0.081 0.863-0.369 1.394-0.487 2.275-0.494 0.656-0.006 0.856 0.019 1.25 0.138 0.756 0.237 1.088 0.469 2.081 1.444 1.3 1.275 1.75 1.988 2.044 3.213 0.119 0.481 0.125 0.744 0.125 4.219 0 4.056 0.012 3.894-0.369 4.219-0.406 0.337-0.881 0.363-1.338 0.069-0.45-0.294-0.481-0.438-0.481-2.425v-1.75l0.469-0.481c0.275-0.281 0.469-0.531 0.469-0.606 0-0.15-0.238-0.438-0.375-0.456-0.050-0.006-0.15-0.006-0.219 0-0.075 0.006-1.669 1.55-4.031 3.906-2.15 2.144-3.969 3.931-4.044 3.969-0.2 0.1-0.569 0.081-0.775-0.038-0.1-0.063-0.244-0.231-0.313-0.381-0.263-0.538-0.338-0.438 2.544-3.325 2.294-2.306 2.588-2.619 2.588-2.794 0-0.275-0.181-0.475-0.431-0.475-0.181 0-0.5 0.294-3.338 3.131-1.725 1.719-3.219 3.163-3.313 3.194-0.413 0.156-0.906-0.012-1.087-0.369-0.1-0.194-0.106-0.587-0.012-0.769 0.038-0.075 1.406-1.481 3.044-3.119 2.656-2.662 2.969-3 2.969-3.175 0-0.256-0.2-0.456-0.456-0.456-0.175 0-0.45 0.25-2.456 2.25-1.244 1.244-2.325 2.288-2.4 2.325-0.637 0.325-1.456-0.45-1.137-1.075 0.037-0.075 1.181-1.25 2.531-2.613 2.050-2.056 2.462-2.5 2.462-2.644 0-0.244-0.094-0.381-0.306-0.469-0.15-0.063-0.213-0.063-0.356 0.019-0.1 0.050-0.813 0.731-1.587 1.506s-1.481 1.456-1.575 1.506c-0.469 0.244-1.137-0.094-1.181-0.6-0.044-0.494-0.119-0.4 2.506-3.031 2.25-2.256 2.5-2.525 2.5-2.706 0-0.263-0.188-0.45-0.456-0.45-0.181 0-0.431 0.231-2.737 2.544-2.856 2.863-2.781 2.762-2.731 3.594 0.013 0.262 0.069 0.556 0.138 0.681 0.138 0.294 0.5 0.662 0.813 0.819l0.238 0.119-0.469 0.481c-0.631 0.65-0.731 0.869-0.731 1.544 0 0.406 0.031 0.594 0.125 0.775 0.188 0.375 0.431 0.625 0.762 0.794l0.313 0.156-0.281 0.3c-0.394 0.419-0.494 0.65-0.531 1.181-0.037 0.556 0.088 0.919 0.45 1.313 0.35 0.381 0.662 0.525 1.2 0.563 0.381 0.025 0.5 0.006 0.781-0.125 0.188-0.087 0.406-0.212 0.487-0.281l0.15-0.125 0.163 0.319c0.2 0.375 0.65 0.744 1.050 0.85 0.344 0.1 0.987 0.050 1.269-0.094 0.119-0.056 1.6-1.488 3.294-3.175l3.075-3.069 0.019 1.437c0.019 1.419 0.019 1.431 0.194 1.788 0.206 0.425 0.563 0.756 1.037 0.975 0.7 0.325 1.644 0.175 2.175-0.356l0.194-0.2 0.213 0.2c0.788 0.744 2.131 0.688 2.869-0.113 0.488-0.531 0.525-0.669 0.544-2.294l0.019-1.431 1.956 1.944c1.069 1.075 1.994 1.95 2.050 1.95 0.369 0 0.619-0.375 0.456-0.675-0.137-0.275-5.613-5.7-5.75-5.706-0.069-0.006-0.169-0.006-0.219 0-0.137 0.019-0.375 0.306-0.375 0.456 0 0.075 0.194 0.325 0.469 0.606l0.469 0.481v1.75c0 1.988-0.031 2.131-0.481 2.425-0.456 0.294-0.931 0.269-1.337-0.069-0.381-0.325-0.369-0.169-0.369-4.2 0-4.019 0.006-4.106 0.369-5.037 0.294-0.762 0.775-1.406 1.8-2.412 0.994-0.975 1.325-1.206 2.081-1.444 0.4-0.119 0.594-0.144 1.281-0.138s0.9 0.031 1.375 0.175c0.769 0.231 1.613 0.65 2.2 1.094 0.269 0.206 1.594 1.481 2.944 2.831 2.581 2.594 2.494 2.481 2.45 2.988-0.038 0.506-0.706 0.844-1.175 0.6-0.094-0.050-0.8-0.731-1.575-1.506s-1.488-1.456-1.587-1.506c-0.319-0.175-0.663 0.063-0.663 0.45 0 0.144 0.413 0.588 2.462 2.644 1.35 1.363 2.494 2.537 2.531 2.613 0.319 0.625-0.5 1.4-1.137 1.075-0.075-0.038-1.156-1.081-2.4-2.325-2.006-2-2.281-2.25-2.456-2.25-0.256 0-0.456 0.2-0.456 0.456 0 0.175 0.313 0.512 2.969 3.175 1.637 1.637 3.006 3.044 3.044 3.119s0.069 0.238 0.069 0.363c0 0.613-0.581 1-1.169 0.775-0.094-0.031-1.587-1.475-3.313-3.194-2.837-2.838-3.156-3.131-3.337-3.131-0.25 0-0.431 0.2-0.431 0.475 0 0.175 0.294 0.488 2.587 2.794 2.881 2.887 2.806 2.788 2.544 3.325-0.15 0.319-0.406 0.488-0.725 0.488s-0.425-0.069-1.038-0.663c-0.6-0.581-0.762-0.637-1.025-0.369-0.288 0.281-0.225 0.438 0.456 1.106 0.775 0.762 0.894 0.831 1.575 0.831 0.444 0 0.581-0.025 0.837-0.156 0.337-0.175 0.688-0.544 0.794-0.844l0.075-0.2 0.3 0.206c0.425 0.281 0.694 0.356 1.175 0.325 0.5-0.038 0.831-0.194 1.169-0.563 0.363-0.394 0.488-0.756 0.45-1.313-0.038-0.525-0.137-0.762-0.525-1.175l-0.281-0.3 0.344-0.194c0.775-0.431 1.1-1.325 0.788-2.156-0.106-0.281-0.256-0.494-0.637-0.887l-0.5-0.519 0.244-0.125c0.5-0.269 0.788-0.631 0.925-1.188 0.113-0.438 0.069-0.819-0.15-1.244-0.069-0.125-1.313-1.412-2.769-2.862-2.756-2.744-3.069-3.013-4.069-3.487-1.087-0.519-2.194-0.763-3.231-0.7-1.569 0.088-2.55 0.619-4.056 2.206-0.712 0.75-1.119 1.294-1.419 1.906-0.094 0.2-0.194 0.363-0.213 0.363s-0.137-0.213-0.269-0.463c-0.294-0.569-0.681-1.094-1.331-1.781-1.519-1.619-2.55-2.169-4.15-2.225-0.394-0.013-0.887 0-1.094 0.031z"></path>
<path fill="#fff" style="fill: var(--color2, #fff)" d="M10.506 21.225c-0.075 0.094-0.131 0.212-0.131 0.275 0 0.156 0.3 0.525 0.738 0.906 2.306 2.006 5.525 2.469 8.25 1.175 0.994-0.469 2.381-1.575 2.488-1.981 0.063-0.256-0.137-0.5-0.431-0.525-0.212-0.019-0.275 0.019-0.712 0.438-0.869 0.825-1.806 1.356-2.944 1.656-0.525 0.144-0.738 0.163-1.606 0.169-0.856 0.006-1.081-0.019-1.556-0.144-1.2-0.313-2.162-0.837-3.013-1.644-0.444-0.413-0.55-0.488-0.738-0.488-0.156 0-0.25 0.044-0.344 0.163z"></path>
<path fill="#fff" style="fill: var(--color2, #fff)" d="M8.906 24.344c-0.35 0.344-0.113 0.669 1.088 1.475 1.2 0.813 2.544 1.375 4.006 1.694 0.575 0.125 0.831 0.137 2.125 0.137s1.55-0.012 2.125-0.137c1.788-0.387 3.356-1.125 4.738-2.212 0.413-0.331 0.512-0.462 0.512-0.675 0-0.175-0.269-0.438-0.456-0.438-0.081 0-0.394 0.188-0.744 0.456-1.188 0.894-2.35 1.469-3.631 1.794-0.969 0.244-1.531 0.313-2.575 0.313-2.069 0-3.969-0.594-5.656-1.762-0.294-0.206-0.65-0.469-0.8-0.587-0.319-0.25-0.525-0.269-0.731-0.056z"></path>
</symbol>
</defs>
</svg>
