<svg aria-hidden="true" style="position: absolute; width: 0; height: 0; overflow: hidden;" version="1.1" xmlns="http://www.w3.org/2000/svg" xmlns:xlink="http://www.w3.org/1999/xlink">
<defs>
<symbol id="menu_button" viewBox="0 0 32 32">
<path d="M6.4 11.734v-2.134h19.2v2.134h-19.2zM6.4 17.066h19.2v-2.133h-19.2v2.133zM6.4 22.4h19.2v-2.134h-19.2v2.134z"></path>
</symbol>
<symbol id="close_cross" viewBox="0 0 32 32">
<path d="M23.734 10.304l-1.504-1.504-5.963 5.962-5.962-5.962-1.504 1.504 5.962 5.962-5.962 5.963 1.504 1.504 5.962-5.963 5.963 5.963 1.504-1.504-5.963-5.963 5.963-5.962z"></path>
</symbol>
<symbol id="diagram" viewBox="0 0 32 32">
<path fill="#2196f3" style="fill: var(--color2, #2196f3)" d="M14.926 14.965h1.066v4.798h-1.066v-4.798zM19.19 17.097h1.066v2.665h-1.066v-2.665zM10.661 18.696h1.066v1.066h-1.066v-1.066zM7.463 18.163h1.066v1.599h-1.066v-1.599z"></path>
<path fill="#212121" style="fill: var(--color3, #212121)" d="M1.599 28.291h25.586c0 0 0 0 0 0 0.883 0 1.599-0.716 1.599-1.599v0-2.132c0-0.883-0.716-1.599-1.599-1.599v0h-0.533v-13.294l3.028-2.868c0.207 0.104 0.452 0.166 0.711 0.166 0.888 0 1.608-0.72 1.608-1.608s-0.72-1.608-1.608-1.608c-0.888 0-1.608 0.72-1.608 1.608 0 0.247 0.056 0.481 0.155 0.69l-0.004-0.010-2.281 2.162v-1.23c0-0.883-0.716-1.599-1.599-1.599v0h-21.323c-0.883 0-1.599 0.716-1.599 1.599v0 15.992h-0.533c-0.883 0-1.599 0.716-1.599 1.599v0 2.132c0 0.883 0.716 1.599 1.599 1.599v0zM30.384 4.837c0.294 0 0.533 0.239 0.533 0.533s-0.239 0.533-0.533 0.533v0c-0.294 0-0.533-0.239-0.533-0.533s0.239-0.533 0.533-0.533v0zM3.198 6.969c0-0.294 0.239-0.533 0.533-0.533h21.323c0.294 0 0.533 0.239 0.533 0.533v2.239l-1.066 1.013v-2.185c0-0.295-0.239-0.534-0.534-0.534h-19.189c-0.294 0-0.534 0.239-0.534 0.533v13.327c0 0.294 0.239 0.533 0.534 0.533h19.189c0.295 0 0.534-0.239 0.534-0.533v-9.675l1.066-1.010v12.283h-22.389v-15.991zM7.996 13.899c-0.001 0-0.003 0-0.005 0-0.883 0-1.599 0.716-1.599 1.599s0.716 1.599 1.599 1.599c0.432 0 0.824-0.172 1.112-0.45l-0 0 1.853 0.93c0.215 0.107 0.476 0.057 0.636-0.122l3.939-4.432 3.872 2.902c0.208 0.155 0.498 0.139 0.686-0.039l3.365-3.188v8.131h-18.123v-12.261h18.123v2.661l-3.771 3.572-3.904-2.927c-0.088-0.067-0.2-0.107-0.32-0.107-0.158 0-0.3 0.069-0.398 0.178l-0 0.001-3.993 4.493-1.493-0.746c0.011-0.064 0.017-0.128 0.020-0.193 0-0.883-0.716-1.599-1.599-1.599v0zM8.529 15.498c0 0.294-0.239 0.533-0.533 0.533s-0.533-0.239-0.533-0.533v0c0-0.294 0.239-0.533 0.533-0.533s0.533 0.239 0.533 0.533v0zM11.727 24.026h5.33v0.533c0 0.294-0.238 0.533-0.533 0.533h-4.265c-0.294 0-0.533-0.239-0.533-0.533v0-0.533zM1.067 24.56c0-0.294 0.238-0.533 0.533-0.533h9.062v0.533c0 0.883 0.716 1.599 1.599 1.599v0h4.265c0.883 0 1.599-0.716 1.599-1.599v0-0.533h9.062c0.294 0 0.533 0.239 0.533 0.533v2.132c0 0.294-0.239 0.533-0.533 0.533h-25.586c-0 0-0 0-0 0-0.294 0-0.533-0.239-0.533-0.533 0 0 0 0 0 0v0-2.132z"></path>
</symbol>
<symbol id="clock" viewBox="0 0 32 32">
<path fill="#212121" style="fill: var(--color3, #212121)" d="M31.296 15.301c-0.001-8.452-6.855-15.303-15.308-15.301s-15.303 6.855-15.301 15.308c0.002 6.788 4.422 12.543 10.54 14.545l0.108 0.031c0.061 0.019 0.123 0.029 0.187 0.029 0.12 0 0.238-0.032 0.342-0.094 0.135-0.080 0.236-0.207 0.283-0.357l3.865-12.25c1.054-0.004 1.906-0.859 1.906-1.913 0-1.056-0.856-1.913-1.913-1.913-0.303 0-0.59 0.071-0.845 0.196l0.011-0.005-5.106-5.107c-0.114-0.11-0.271-0.179-0.443-0.179-0.352 0-0.638 0.286-0.638 0.638 0 0.172 0.068 0.328 0.179 0.443l-0-0 5.103 5.109c-0.121 0.241-0.191 0.525-0.191 0.825 0 0.602 0.283 1.137 0.724 1.481l0.004 0.003-3.683 11.673c-7.278-2.681-11.004-10.754-8.324-18.032s10.754-11.004 18.032-8.323c7.278 2.681 11.004 10.754 8.323 18.032-1.345 3.581-4.003 6.406-7.374 7.938l-0.088 0.036-0.398-1.874c-0.063-0.291-0.318-0.506-0.624-0.506-0.163 0-0.313 0.061-0.425 0.163l0.001-0.001-3.837 3.426c-0.132 0.117-0.214 0.287-0.214 0.477 0 0.283 0.185 0.524 0.441 0.606l0.005 0.001 4.899 1.563c0.058 0.020 0.126 0.031 0.196 0.031 0.352 0 0.637-0.285 0.637-0.637 0-0.047-0.005-0.093-0.015-0.138l0.001 0.004-0.391-1.839c5.528-2.374 9.329-7.772 9.329-14.057 0-0.011 0-0.023-0-0.034v0.002zM15.992 14.664c0.352 0 0.638 0.286 0.638 0.638s-0.285 0.638-0.638 0.638v0c-0.352 0-0.638-0.286-0.638-0.638s0.286-0.638 0.638-0.638v0zM18.092 29.528l2.184-1.948 0.603 2.84-2.787-0.892z"></path>
<path fill="#2196f3" style="fill: var(--color2, #2196f3)" d="M15.354 3.185v1.275c0 0.352 0.286 0.638 0.638 0.638s0.638-0.285 0.638-0.638v0-1.275c0-0.352-0.285-0.638-0.638-0.638s-0.638 0.285-0.638 0.638v0zM3.876 14.664c-0.352 0-0.638 0.286-0.638 0.638s0.285 0.638 0.638 0.638h1.275c0.352 0 0.638-0.286 0.638-0.638s-0.285-0.638-0.638-0.638h-1.275zM28.108 15.939c0.352 0 0.638-0.286 0.638-0.638s-0.285-0.638-0.638-0.638h-1.275c-0.352 0-0.638 0.286-0.638 0.638s0.285 0.638 0.638 0.638h1.275z"></path>
</symbol>
<symbol id="antenna" viewBox="0 0 32 32">
<path fill="#212121" style="fill: var(--color3, #212121)" d="M30.773 22.098l-8.443-8.505 0.937-4.616c0.225 0.090 0.485 0.144 0.758 0.146h0.007c0.008 0 0.017 0 0.026 0 1.192 0 2.159-0.967 2.159-2.159s-0.967-2.159-2.159-2.159c-1.192 0-2.159 0.967-2.159 2.159 0 0.259 0.046 0.508 0.13 0.739l-0.005-0.015-4.96 0.606-8.091-8.133c-0.096-0.098-0.229-0.159-0.376-0.16h-0c-0.14 0.001-0.274 0.057-0.373 0.155l-1.512 1.504c-0.096 0.097-0.156 0.23-0.156 0.377s0.060 0.281 0.156 0.377v0l0.814 0.825c-1.143 2.062-1.816 4.522-1.816 7.139 0 4.106 1.656 7.824 4.336 10.525l-0.001-0.001c0.043 0.041 0.092 0.074 0.146 0.097-0.032 0.164-0.051 0.353-0.052 0.546v6.188h-6.4c-1.472 0.001-2.666 1.194-2.667 2.666v1.067c0 0.295 0.239 0.534 0.534 0.534h24.534c0.294 0 0.533-0.239 0.533-0.534v-1.067c-0.002-1.472-1.195-2.665-2.666-2.666h-6.4v-2.742c0.915 0.201 1.968 0.317 3.047 0.32h0.002c2.58-0.003 5.005-0.663 7.117-1.822l-0.077 0.039 0.818 0.823c0.099 0.101 0.235 0.159 0.376 0.16 0.14-0.001 0.274-0.057 0.373-0.155l1.512-1.504c0.096-0.097 0.156-0.23 0.156-0.377s-0.060-0.281-0.156-0.377v0zM23.28 6.233c0.193-0.192 0.459-0.31 0.752-0.31 0.589 0 1.067 0.478 1.067 1.066s-0.477 1.066-1.067 1.066c-0 0-0 0-0.001 0h-0.003c-0.587-0.003-1.061-0.479-1.061-1.066 0-0.295 0.12-0.563 0.314-0.756l0-0h-0.002zM22.024 9.737l-0.598 2.946-1.175-1.183 1.774-1.763zM21.419 8.835l-1.92 1.909-1.486-1.493 3.406-0.416zM24.004 28.8c0.884 0 1.6 0.716 1.6 1.6v0 0.534h-23.466v-0.534c0-0.884 0.716-1.6 1.6-1.6v0h20.267zM16.538 26.666v1.067h-5.334v-1.067h5.334zM11.204 25.6v-4.053c0-1.294 1.196-2.346 2.667-2.346s2.667 1.053 2.667 2.346v4.053h-5.334zM17.604 23.904v-2.357c0-1.882-1.675-3.413-3.733-3.413-0.017-0-0.038-0-0.058-0-1.353 0-2.54 0.707-3.213 1.771l-0.009 0.016c-2.36-2.482-3.812-5.846-3.812-9.55 0-2.314 0.567-4.496 1.569-6.414l-0.036 0.077 18.602 18.709c-1.823 0.947-3.979 1.502-6.266 1.502-1.079 0-2.128-0.124-3.136-0.357l0.093 0.018zM28.893 23.22l-21.057-21.181 0.754-0.752 7.935 7.98c0.004 0 0.006 0.007 0.009 0.010l13.115 13.191-0.757 0.752z"></path>
<path fill="#2196f3" style="fill: var(--color2, #2196f3)" d="M13.876 20.267h-0.005c-0.001 0-0.002 0-0.002 0-0.884 0-1.6 0.716-1.6 1.6s0.715 1.599 1.597 1.6h0.005c0.001 0 0.001 0 0.002 0 0.884 0 1.6-0.716 1.6-1.6s-0.715-1.599-1.598-1.6h-0zM14.249 22.245c-0.096 0.096-0.229 0.155-0.376 0.155-0.295 0-0.534-0.239-0.534-0.534s0.238-0.533 0.532-0.533h0c0.293 0.002 0.53 0.24 0.53 0.533 0 0.148-0.060 0.281-0.157 0.378v0h0.005z"></path>
</symbol>
<symbol id="smartphone" viewBox="0 0 20 32">
<path d="M17 0h-14c-1.654 0-3 1.346-3 3v26c0 1.654 1.346 3 3 3h14c1.654 0 3-1.346 3-3v-26c0-1.654-1.346-3-3-3zM3 2h14c0.552 0 1 0.448 1 1v0 21h-16v-21c0-0.552 0.448-1 1-1v0zM17 30h-14c-0.552 0-1-0.448-1-1v0-3h16v3c0 0.552-0.448 1-1 1v0z"></path>
<path d="M4.708 27.478c0.18 0.163 0.293 0.399 0.293 0.66s-0.113 0.497-0.292 0.659l-0.001 0.001c-0.186 0.17-0.435 0.275-0.708 0.275s-0.522-0.104-0.709-0.275l0.001 0.001c-0.18-0.163-0.293-0.399-0.293-0.66s0.113-0.497 0.292-0.659l0.001-0.001c0.186-0.17 0.435-0.275 0.708-0.275s0.522 0.104 0.709 0.275l-0.001-0.001z"></path>
</symbol>
<symbol id="envelope" viewBox="0 0 43 32">
<path d="M38.667 0h-34.667c-2.205 0-4 1.795-4 4v24c0 2.205 1.795 4 4 4h34.667c2.205 0 4-1.795 4-4v-24c0-2.205-1.795-4-4-4zM38.667 2.667c0.181 0 0.355 0.037 0.512 0.104l-17.845 15.467-17.845-15.467c0.151-0.065 0.327-0.104 0.512-0.104h34.667zM38.667 29.333h-34.667c-0.736 0-1.333-0.597-1.333-1.333v0-22.413l17.792 15.421c0.233 0.203 0.539 0.327 0.875 0.327s0.642-0.124 0.876-0.328l-0.002 0.001 17.792-15.421v22.413c0 0.736-0.597 1.333-1.333 1.333v0z"></path>
</symbol>
<symbol id="icon-arrow" viewBox="0 0 29 32">
<path fill="#f90" style="fill: var(--color1, #f90)" d="M26.697 14.367c1.245 0.733 1.245 2.534 0 3.266l-23 13.529c-1.263 0.743-2.855-0.168-2.855-1.633v-27.059c0-1.465 1.592-2.376 2.855-1.633l23 13.529z"></path>
</symbol>
<symbol id="icon-click" viewBox="0 0 33 32">
<path fill="#7752be" style="fill: var(--color1, #7752be)" opacity="0.848005" d="M8.32 16h16c4.418 0 8 3.582 8 8s-3.582 8-8 8h-16c-4.418 0-8-3.582-8-8s3.582-8 8-8z"></path>
<path fill="#7752be" style="fill: var(--color1, #7752be)" d="M12.16 0h7.68c6.716 0 12.16 5.444 12.16 12.16v7.68c0 6.716-5.444 12.16-12.16 12.16h-7.68c-6.716 0-12.16-5.444-12.16-12.16v-7.68c0-6.716 5.444-12.16 12.16-12.16z"></path>
<path fill="#fff" style="fill: var(--color2, #fff)" d="M18.634 17.663l-5.851-5.851c-0.069-0.074-0.16-0.109-0.257-0.109-0.046 0-0.097 0.011-0.137 0.029-0.137 0.057-0.229 0.189-0.229 0.337v8.594c0 0.149 0.091 0.28 0.229 0.337 0.040 0.017 0.091 0.029 0.137 0.029 0.097 0 0.189-0.040 0.257-0.109l1.783-1.783 1.091 2.583c0.080 0.183 0.291 0.274 0.48 0.194l1.011-0.429c0.183-0.080 0.274-0.291 0.194-0.48l-1.149-2.72h2.183c0.149 0 0.28-0.091 0.337-0.229 0.057-0.131 0.029-0.291-0.080-0.394z"></path>
</symbol>
<symbol id="icon-design" viewBox="0 0 32 32">
<path fill="#fab005" style="fill: var(--color3, #fab005)" opacity="0.848005" d="M8 16h16c4.418 0 8 3.582 8 8s-3.582 8-8 8h-16c-4.418 0-8-3.582-8-8s3.582-8 8-8z"></path>
<path fill="#fab005" style="fill: var(--color3, #fab005)" d="M12.16 0h7.68c6.716 0 12.16 5.444 12.16 12.16v7.68c0 6.716-5.444 12.16-12.16 12.16h-7.68c-6.716 0-12.16-5.444-12.16-12.16v-7.68c0-6.716 5.444-12.16 12.16-12.16z"></path>
<path fill="#fff" style="fill: var(--color2, #fff)" d="M16.309 15.771l0.749 0.349 1.114-0.331v-0.777c0-1.32-1.114-2.377-2.446-2.377-1.326 0-2.446 1.051-2.446 2.36v3.543c0 0.326-0.263 0.583-0.583 0.583s-0.583-0.257-0.583-0.583v-1.497h-1.874c0 1.503 0 1.52 0 1.52 0 1.354 1.097 2.451 2.451 2.451 1.343 0 2.451-1.080 2.451-2.417v-3.497c0-0.32 0.263-0.583 0.583-0.583s0.583 0.263 0.583 0.583v0.674zM19.337 17.040v1.571c0 0.32-0.263 0.577-0.583 0.577s-0.583-0.257-0.583-0.577v-1.543l-1.114 0.331-0.749-0.349v1.531c0 1.343 1.103 2.429 2.451 2.429 1.354 0 2.451-1.097 2.451-2.451 0 0 0-0.017 0-1.52h-1.874z"></path>
</symbol>
<symbol id="icon-heart" viewBox="0 0 32 32">
<path fill="#f03e3d" style="fill: var(--color4, #f03e3d)" opacity="0.848005" d="M8 16h16c4.418 0 8 3.582 8 8s-3.582 8-8 8h-16c-4.418 0-8-3.582-8-8s3.582-8 8-8z"></path>
<path fill="#f03e3d" style="fill: var(--color4, #f03e3d)" d="M12.16 0h7.68c6.716 0 12.16 5.444 12.16 12.16v7.68c0 6.716-5.444 12.16-12.16 12.16h-7.68c-6.716 0-12.16-5.444-12.16-12.16v-7.68c0-6.716 5.444-12.16 12.16-12.16z"></path>
<path fill="#fff" style="fill: var(--color2, #fff)" d="M16 21.211c0.091 0 0.183-0.034 0.251-0.103l3.56-3.429c0.051-0.051 1.309-1.2 1.309-2.571 0-1.674-1.023-2.674-2.731-2.674-1 0-1.937 0.789-2.389 1.234-0.451-0.446-1.389-1.234-2.389-1.234-1.709 0-2.731 1-2.731 2.674 0 1.371 1.257 2.52 1.303 2.56l3.566 3.44c0.069 0.069 0.16 0.103 0.251 0.103z"></path>
</symbol>
<symbol id="icon-hourglass" viewBox="0 0 32 32">
<path fill="#4dadf7" style="fill: var(--color5, #4dadf7)" opacity="0.848005" d="M8 16h16c4.418 0 8 3.582 8 8s-3.582 8-8 8h-16c-4.418 0-8-3.582-8-8s3.582-8 8-8z"></path>
<path fill="#4dadf7" style="fill: var(--color5, #4dadf7)" d="M12.16 0h7.68c6.716 0 12.16 5.444 12.16 12.16v7.68c0 6.716-5.444 12.16-12.16 12.16h-7.68c-6.716 0-12.16-5.444-12.16-12.16v-7.68c0-6.716 5.444-12.16 12.16-12.16z"></path>
<path fill="#fff" style="fill: var(--color2, #fff)" d="M19.566 12.434h0.549c0.103 0 0.183-0.080 0.183-0.183v-0.366c0-0.103-0.080-0.183-0.183-0.183h-8.411c-0.103 0-0.183 0.080-0.183 0.183v0.366c0 0.103 0.080 0.183 0.183 0.183h0.549c0 2.114 1.011 3.646 2.131 4.389-1.12 0.743-2.131 2.274-2.131 4.389h-0.549c-0.103 0-0.183 0.080-0.183 0.183v0.366c0 0.103 0.080 0.183 0.183 0.183h8.411c0.103 0 0.183-0.080 0.183-0.183v-0.366c0-0.103-0.080-0.183-0.183-0.183h-0.549c0-2.114-1.011-3.646-2.131-4.389 1.12-0.743 2.131-2.274 2.131-4.389zM18.834 12.434c0 0.834-0.189 1.571-0.486 2.194h-4.88c-0.297-0.623-0.486-1.36-0.486-2.194h5.851zM18.509 19.383h-5.2c0.423-1.103 1.183-1.886 1.943-2.194h1.314c0.76 0.309 1.52 1.091 1.943 2.194z"></path>
</symbol>
<symbol id="icon-checked" viewBox="0 0 32 32">
<path fill="#f90" style="fill: var(--color1, #f90)" d="M12.667 1.333h6.667c6.259 0 11.333 5.074 11.333 11.333v6.667c0 6.259-5.074 11.333-11.333 11.333h-6.667c-6.259 0-11.333-5.074-11.333-11.333v-6.667c0-6.259 5.074-11.333 11.333-11.333z"></path>
<path fill="none" stroke="#fff" style="stroke: var(--color2, #fff)" stroke-linejoin="miter" stroke-linecap="butt" stroke-miterlimit="4" stroke-width="2.6667" d="M12.667 1.333h6.667c6.259 0 11.333 5.074 11.333 11.333v6.667c0 6.259-5.074 11.333-11.333 11.333h-6.667c-6.259 0-11.333-5.074-11.333-11.333v-6.667c0-6.259 5.074-11.333 11.333-11.333z"></path>
<path fill="none" stroke="#f90" style="stroke: var(--color1, #f90)" stroke-linejoin="miter" stroke-linecap="butt" stroke-miterlimit="4" stroke-width="2.6667" d="M12.667 1.333h6.667c6.259 0 11.333 5.074 11.333 11.333v6.667c0 6.259-5.074 11.333-11.333 11.333h-6.667c-6.259 0-11.333-5.074-11.333-11.333v-6.667c0-6.259 5.074-11.333 11.333-11.333z"></path>
<path fill="#fff" style="fill: var(--color2, #fff)" d="M23.557 11.19c-0.286-0.292-0.749-0.292-1.034 0l-8.763 8.949-3.368-3.44c-0.286-0.292-0.749-0.292-1.034 0s-0.286 0.765 0 1.056l3.886 3.968c0.286 0.292 0.749 0.291 1.034 0l9.28-9.478c0.286-0.292 0.286-0.765 0-1.056z"></path>
</symbol>
</defs>
</svg>
